<svg width="273" height="101" viewBox="0 0 273 101" fill="none" xmlns="http://www.w3.org/2000/svg">
<g clip-path="url(#clip0_1_301)">
<mask id="mask0_1_301" style="mask-type:luminance" maskUnits="userSpaceOnUse" x="-19" y="0" width="292" height="101">
<path d="M273 0H-19V101H273V0Z" fill="white"/>
</mask>
<g mask="url(#mask0_1_301)">
<path d="M156.526 60.3953L157.128 54.747H157.336L157.938 60.3953L158.4 63.99H156.039L156.526 60.3953ZM159.834 69.6119H161.083C161.662 69.6119 161.939 69.215 161.847 68.6314L159.557 53.4854C159.488 52.9249 159.21 52.7149 158.747 52.7149H155.739C155.277 52.7149 154.976 52.9249 154.907 53.4854L152.617 68.6314C152.525 69.1919 152.802 69.6119 153.381 69.6119H154.63C155.023 69.6119 155.371 69.425 155.439 68.8877L155.764 66.2735H158.703L159.051 68.8877C159.095 69.425 159.465 69.6119 159.834 69.6119ZM149.582 53.5086C149.582 52.9943 149.282 52.7149 148.773 52.7149H147.455C146.947 52.7149 146.645 52.9943 146.645 53.5086V68.7934C146.645 69.3076 146.945 69.6102 147.455 69.6102H148.773C149.281 69.6102 149.582 69.3076 149.582 68.7934V53.5086ZM140.191 59.4595L140.491 63.4262L140.283 63.4493L139.264 59.5984L137.341 53.3217C137.224 52.9712 137.016 52.7149 136.531 52.7149H135.098C134.59 52.7149 134.289 52.9943 134.289 53.5086V68.7934C134.289 69.3076 134.588 69.6102 135.098 69.6102H136.254C136.762 69.6102 137.041 69.3076 137.041 68.7934V62.8657L136.741 58.8989L136.949 58.8758L137.969 62.7268L139.891 69.0034C140.031 69.3539 140.216 69.6102 140.701 69.6102H142.157C142.665 69.6102 142.942 69.3076 142.942 68.7934V53.5086C142.942 52.9943 142.665 52.7149 142.157 52.7149H141.001C140.493 52.7149 140.191 52.9943 140.191 53.5086V59.4595ZM126.353 50.4744L129.107 51.7575C129.477 51.9444 129.754 51.9212 129.963 51.5707L130.194 51.1738C130.356 50.8696 130.286 50.567 129.94 50.3339L127.281 48.396C127.05 48.2323 126.887 48.1628 126.679 48.1628H126.03C125.822 48.1628 125.637 48.2323 125.429 48.396L122.77 50.357C122.422 50.5902 122.353 50.8713 122.516 51.197L122.747 51.5938C122.955 51.9212 123.232 51.9444 123.602 51.7807L126.353 50.4744ZM126.33 52.5991C123.414 52.5991 122.098 53.788 122.098 56.2137V66.1131C122.098 68.5388 123.416 69.7276 126.33 69.7276C129.246 69.7276 130.585 68.5388 130.585 66.1131V56.2137C130.585 53.788 129.245 52.5991 126.33 52.5991ZM126.33 54.8843C127.279 54.8843 127.65 55.4217 127.65 56.2153V66.1148C127.65 66.9084 127.279 67.4458 126.33 67.4458C125.381 67.4458 125.033 66.9084 125.033 66.1148V56.2153C125.032 55.42 125.379 54.8843 126.33 54.8843ZM114.575 67.3268L118.786 54.6263C118.832 54.4858 118.855 54.3237 118.855 54.1832V53.5069C118.855 52.9943 118.578 52.7149 118.068 52.7149H112.075C111.566 52.7149 111.266 52.9943 111.266 53.5069V54.1832C111.266 54.6958 111.566 54.9984 112.075 54.9984H115.546L111.334 67.674C111.289 67.8145 111.266 67.9997 111.266 68.1403V68.7934C111.266 69.306 111.566 69.6086 112.075 69.6086H118.068C118.578 69.6086 118.855 69.306 118.855 68.7934V68.1171C118.855 67.6046 118.578 67.3251 118.068 67.3251H114.575V67.3268ZM103.376 60.3953L103.978 54.747H104.186L104.787 60.3953L105.25 63.99H102.889L103.376 60.3953ZM106.686 69.6119H107.935C108.513 69.6119 108.79 69.215 108.699 68.6314L106.407 53.4854C106.338 52.9249 106.059 52.7149 105.597 52.7149H102.589C102.127 52.7149 101.825 52.9249 101.756 53.4854L99.4648 68.6314C99.373 69.1919 99.65 69.6119 100.229 69.6119H101.478C101.871 69.6119 102.219 69.425 102.288 68.8877L102.612 66.2735H105.551L105.899 68.8877C105.945 69.425 106.315 69.6119 106.686 69.6119ZM91.6916 66.414C92.1785 66.414 92.4325 66.1578 92.4784 65.7841L93.8669 57.4521H94.0521L93.8439 60.7426V68.7934C93.8439 69.3076 94.1439 69.6102 94.6521 69.6102H95.6225C96.1306 69.6102 96.4306 69.3076 96.4306 68.7934V53.5086C96.4306 52.9943 96.1077 52.7149 95.6225 52.7149H93.3571C92.8473 52.7149 92.5932 52.9712 92.5243 53.4854L91.5523 58.5021L91.0195 62.492H90.8114L90.2557 58.5021L89.3065 53.4854C89.2131 52.9712 88.982 52.7149 88.4722 52.7149H86.2068C85.6986 52.7149 85.3986 52.9943 85.3986 53.5086V68.7934C85.3986 69.3076 85.6986 69.6102 86.2068 69.6102H87.1772C87.6853 69.6102 87.9853 69.3076 87.9853 68.7934V60.7426L87.7771 57.4521H87.9624L89.3278 65.7841C89.3967 66.1578 89.6524 66.414 90.1376 66.414H91.6916ZM77.0435 60.3953L77.6451 54.747H77.8533L78.4549 60.3953L78.9171 63.99H76.5567L77.0435 60.3953ZM80.3531 69.6119H81.6022C82.1808 69.6119 82.4579 69.215 82.3661 68.6314L80.0744 53.4854C80.0056 52.9249 79.7269 52.7149 79.2647 52.7149H76.2567C75.7944 52.7149 75.4928 52.9249 75.424 53.4854L73.134 68.6314C73.0405 69.1919 73.3192 69.6119 73.8978 69.6119H75.1469C75.5403 69.6119 75.8879 69.425 75.9567 68.8877L76.2813 66.2735H79.2204L79.5679 68.8877C79.6122 69.425 79.9826 69.6119 80.3531 69.6119Z" fill="#028E7C"/>
</g>
<mask id="mask1_1_301" style="mask-type:luminance" maskUnits="userSpaceOnUse" x="-19" y="0" width="292" height="101">
<path d="M273 0H-19V101H273V0Z" fill="white"/>
</mask>
<g mask="url(#mask1_1_301)">
<path d="M77.1457 32.3009V31.8958C77.1457 31.6858 77.0261 31.58 76.8179 31.58H73.446C73.2378 31.58 73.1182 31.6858 73.1182 31.8958V42.1491C73.1182 42.3591 73.2378 42.4798 73.446 42.4798H74.0427C74.2509 42.4798 74.3705 42.3591 74.3705 42.1491V37.5557H76.2507C76.4605 37.5557 76.5786 37.435 76.5786 37.225V36.8199C76.5786 36.6099 76.4589 36.5041 76.2507 36.5041H74.3689V32.6316H76.8179C77.0261 32.6316 77.1457 32.5125 77.1457 32.3009ZM85.4009 40.3435V31.8958C85.4009 31.6858 85.2812 31.58 85.073 31.58H84.4763C84.2682 31.58 84.1485 31.6858 84.1485 31.8958V40.3435C84.1485 41.066 83.9551 41.5025 83.1027 41.5025C82.2503 41.5025 82.0569 41.066 82.0569 40.3435V31.8958C82.0569 31.6858 81.9372 31.58 81.729 31.58H81.1323C80.9241 31.58 80.8045 31.6858 80.8045 31.8958V40.3435C80.8045 41.7737 81.311 42.5558 83.1027 42.5558C84.8944 42.5558 85.4009 41.7737 85.4009 40.3435ZM94.2084 42.1491V31.8958C94.2084 31.6858 94.1035 31.58 93.8953 31.58H93.3282C93.12 31.58 93.0003 31.6858 93.0003 31.8958V37.4366L93.12 39.7102L93.0462 39.725L92.5233 37.5127L91.03 31.866C90.9857 31.6709 90.8956 31.58 90.6874 31.58H89.912C89.7038 31.58 89.5842 31.6858 89.5842 31.8958V42.1491C89.5842 42.3591 89.7038 42.4798 89.912 42.4798H90.4792C90.6874 42.4798 90.7923 42.3591 90.7923 42.1491V36.6231L90.6726 34.3496L90.7464 34.3347L91.2693 36.5487L92.7626 42.1954C92.8216 42.3905 92.897 42.4814 93.1052 42.4814H93.8953C94.1035 42.4798 94.2084 42.3591 94.2084 42.1491ZM101.629 40.0574C101.629 40.9156 101.405 41.4281 100.388 41.4281H99.6408V32.6316H100.388C101.405 32.6316 101.629 33.1442 101.629 33.9874V40.0574ZM102.867 40.0574V33.9874C102.867 32.4365 102.346 31.58 100.39 31.58H98.7179C98.5098 31.58 98.3901 31.6858 98.3901 31.8958V42.1507C98.3901 42.3607 98.5098 42.4814 98.7179 42.4814H100.39C102.346 42.4798 102.867 41.6233 102.867 40.0574ZM110.392 40.3435C110.392 41.066 110.199 41.5025 109.347 41.5025C108.494 41.5025 108.301 41.066 108.301 40.3435V33.7163C108.301 32.9937 108.494 32.5572 109.347 32.5572C110.199 32.5572 110.392 32.9937 110.392 33.7163V40.3435ZM111.645 40.3435V33.7163C111.645 32.286 111.138 31.5039 109.347 31.5039C107.555 31.5039 107.048 32.286 107.048 33.7163V40.3435C107.048 41.7737 107.555 42.5558 109.347 42.5558C111.138 42.5558 111.645 41.7737 111.645 40.3435ZM122.097 40.0574C122.097 40.9156 121.872 41.4281 120.856 41.4281H120.108V32.6316H120.856C121.872 32.6316 122.097 33.1442 122.097 33.9874V40.0574ZM123.333 40.0574V33.9874C123.333 32.4365 122.811 31.58 120.856 31.58H119.184C118.975 31.58 118.856 31.6858 118.856 31.8958V42.1507C118.856 42.3607 118.975 42.4814 119.184 42.4814H120.856C122.811 42.4798 123.333 41.6233 123.333 40.0574ZM130.545 39.0637H128.753L129.276 35.555L129.619 32.6332H129.694L130.037 35.555L130.545 39.0637ZM132.232 42.1044L130.68 31.9123C130.65 31.6858 130.545 31.5816 130.337 31.5816H128.993C128.785 31.5816 128.665 31.6874 128.634 31.9123L127.081 42.1044C127.052 42.3144 127.157 42.4814 127.365 42.4814H127.993C128.172 42.4814 128.291 42.3756 128.321 42.1805L128.619 40.1169H130.694L131.007 42.1805C131.022 42.3756 131.157 42.4814 131.32 42.4814H131.948C132.156 42.4798 132.261 42.3293 132.232 42.1044ZM177.153 66.1131C177.153 66.9067 176.783 67.4441 175.834 67.4441C174.884 67.4441 174.537 66.9067 174.537 66.1131V56.2136C174.537 55.42 174.884 54.8826 175.834 54.8826C176.783 54.8826 177.153 55.42 177.153 56.2136V66.1131ZM180.089 66.1131V56.2136C180.089 53.788 178.748 52.5991 175.834 52.5991C172.917 52.5991 171.601 53.788 171.601 56.2136V66.1131C171.601 68.5387 172.919 69.7276 175.834 69.7276C178.748 69.7276 180.089 68.5387 180.089 66.1131ZM189.3 59.0841C189.3 59.9472 188.906 60.5309 187.887 60.5309H186.728V55H187.887C188.906 55 189.3 55.5836 189.3 56.4236V59.0841ZM192.677 68.4676L190.388 62.353C191.683 61.8388 192.214 60.7425 192.214 59.0857V56.4253C192.214 53.9285 190.874 52.7165 187.888 52.7165H184.603C184.095 52.7165 183.794 52.9959 183.794 53.5085V68.795C183.794 69.3092 184.094 69.6118 184.603 69.6118H185.921C186.43 69.6118 186.731 69.3092 186.731 68.795V62.8193H187.495L189.764 69.0745C189.879 69.425 190.134 69.6118 190.549 69.6118H191.959C192.723 69.6118 192.837 68.8876 192.677 68.4676ZM198.853 68.795V53.5102C198.853 52.9959 198.553 52.7165 198.043 52.7165H196.726C196.217 52.7165 195.916 52.9959 195.916 53.5102V68.795C195.916 69.3092 196.216 69.6118 196.726 69.6118H198.043C198.553 69.6118 198.853 69.3076 198.853 68.795ZM209.798 68.795V68.1187C209.798 67.6062 209.498 67.3267 208.989 67.3267H205.495V62.3051H208.11C208.62 62.3051 208.92 62.0025 208.92 61.4899V60.8136C208.92 60.3011 208.62 60.0216 208.11 60.0216H205.495V55H208.989C209.498 55 209.798 54.6974 209.798 54.1848V53.5085C209.798 52.9959 209.498 52.7165 208.989 52.7165H203.368C202.86 52.7165 202.558 52.9959 202.558 53.5085V68.7967C202.558 69.3092 202.858 69.6118 203.368 69.6118H208.989C209.498 69.6118 209.798 69.3076 209.798 68.795ZM221.46 68.795V53.5102C221.46 52.9959 221.183 52.7165 220.675 52.7165H219.519C219.011 52.7165 218.709 52.9959 218.709 53.5102V59.4611L219.009 63.4278L218.801 63.4509L217.783 59.6L215.86 53.3217C215.744 52.9711 215.536 52.7148 215.05 52.7148H213.618C213.11 52.7148 212.808 52.9943 212.808 53.5085V68.7934C212.808 69.3076 213.108 69.6102 213.618 69.6102H214.773C215.282 69.6102 215.559 69.3076 215.559 68.7934V62.8656L215.259 58.8989L215.467 58.8757L216.485 62.7267L218.408 69.005C218.547 69.3555 218.732 69.6118 219.217 69.6118H220.673C221.183 69.6118 221.46 69.3076 221.46 68.795ZM233.47 54.1848V53.5085C233.47 52.9959 233.169 52.7165 232.661 52.7165H225.051C224.542 52.7165 224.242 52.9959 224.242 53.5085V54.1848C224.242 54.6974 224.542 55 225.051 55H227.389V68.795C227.389 69.3092 227.689 69.6118 228.199 69.6118H229.517C230.025 69.6118 230.326 69.3092 230.326 68.795V55H232.664C233.169 55 233.47 54.6974 233.47 54.1848ZM240.204 63.99H237.844L238.329 60.3953L238.931 54.747H239.139L239.74 60.3953L240.204 63.99ZM243.652 68.6313L241.362 53.4854C241.293 52.9248 241.014 52.7148 240.552 52.7148H237.544C237.082 52.7148 236.78 52.9248 236.711 53.4854L234.42 68.6313C234.328 69.1919 234.605 69.6118 235.183 69.6118H236.432C236.826 69.6118 237.173 69.425 237.242 68.8876L237.567 66.2734H240.506L240.853 68.8876C240.899 69.425 241.27 69.6118 241.64 69.6118H242.889C243.468 69.6118 243.745 69.215 243.652 68.6313ZM253.925 68.795V68.1187C253.925 67.6062 253.625 67.3267 253.115 67.3267H249.622V53.5085C249.622 52.9943 249.322 52.7148 248.812 52.7148H247.494C246.986 52.7148 246.684 52.9943 246.684 53.5085V68.795C246.684 69.3076 246.984 69.6102 247.494 69.6102H253.115C253.623 69.6118 253.925 69.3076 253.925 68.795Z" fill="black"/>
</g>
<mask id="mask2_1_301" style="mask-type:luminance" maskUnits="userSpaceOnUse" x="-19" y="0" width="292" height="101">
<path d="M273 0H-19V101H273V0Z" fill="white"/>
</mask>
<g mask="url(#mask2_1_301)">
<path d="M36.7021 19.9509V81.2804C38.0053 81.0142 39.2774 80.6571 40.515 80.2305V21.0009C39.2774 20.5743 38.007 20.2188 36.7021 19.9509Z" fill="#0670B0"/>
</g>
<mask id="mask3_1_301" style="mask-type:luminance" maskUnits="userSpaceOnUse" x="-19" y="0" width="292" height="101">
<path d="M273 0H-19V101H273V0Z" fill="white"/>
</mask>
<g mask="url(#mask3_1_301)">
<path d="M4.2832 33.9065V67.3268C5.39132 69.0928 6.66992 70.738 8.09604 72.2427V28.9907C6.67156 30.4937 5.39296 32.139 4.2832 33.9065Z" fill="#0670B0"/>
</g>
<mask id="mask4_1_301" style="mask-type:luminance" maskUnits="userSpaceOnUse" x="-19" y="0" width="292" height="101">
<path d="M273 0H-19V101H273V0Z" fill="white"/>
</mask>
<g mask="url(#mask4_1_301)">
<path d="M56.7256 67.3285V33.9049C55.6175 32.139 54.3389 30.4937 52.9111 28.9907V72.2443C54.3389 70.7396 55.6175 69.0944 56.7256 67.3285Z" fill="#80C41C"/>
</g>
<mask id="mask5_1_301" style="mask-type:luminance" maskUnits="userSpaceOnUse" x="-19" y="0" width="292" height="101">
<path d="M273 0H-19V101H273V0Z" fill="white"/>
</mask>
<g mask="url(#mask5_1_301)">
<path d="M56.7256 67.3285V33.9049C55.6175 32.139 54.3389 30.4937 52.9111 28.9907V72.2443C54.3389 70.7396 55.6175 69.0944 56.7256 67.3285Z" fill="#80C41C"/>
</g>
<mask id="mask6_1_301" style="mask-type:luminance" maskUnits="userSpaceOnUse" x="-19" y="0" width="292" height="101">
<path d="M273 0H-19V101H273V0Z" fill="white"/>
</mask>
<g mask="url(#mask6_1_301)">
<path d="M20.4941 80.2305C21.7334 80.6571 23.0038 81.0142 24.3086 81.2804V19.9509C23.0038 20.2171 21.7334 20.5743 20.4941 21.0009V80.2305Z" fill="#80C41C"/>
</g>
<mask id="mask7_1_301" style="mask-type:luminance" maskUnits="userSpaceOnUse" x="-19" y="0" width="292" height="101">
<path d="M273 0H-19V101H273V0Z" fill="white"/>
</mask>
<g mask="url(#mask7_1_301)">
<path d="M20.4941 80.2305C21.7334 80.6571 23.0038 81.0142 24.3086 81.2804V19.9509C23.0038 20.2171 21.7334 20.5743 20.4941 21.0009V80.2305Z" fill="#80C41C"/>
</g>
<mask id="mask8_1_301" style="mask-type:luminance" maskUnits="userSpaceOnUse" x="-19" y="0" width="292" height="101">
<path d="M273 0H-19V101H273V0Z" fill="white"/>
</mask>
<g mask="url(#mask8_1_301)">
<path d="M29.2665 19.3574C27.1585 19.4417 25.1062 19.7361 23.126 20.2238L60.2856 41.8647C59.702 39.8425 58.925 37.9046 57.9693 36.0742L29.2665 19.3574Z" fill="#018F62"/>
</g>
<mask id="mask9_1_301" style="mask-type:luminance" maskUnits="userSpaceOnUse" x="-19" y="0" width="292" height="101">
<path d="M273 0H-19V101H273V0Z" fill="white"/>
</mask>
<g mask="url(#mask9_1_301)">
<path d="M7.28516 29.8768L59.9256 60.5325C60.3403 59.2808 60.6813 57.9961 60.9386 56.6799L10.0899 27.0659C9.09814 27.9439 8.1605 28.8814 7.28516 29.8768Z" fill="#018F62"/>
</g>
<mask id="mask10_1_301" style="mask-type:luminance" maskUnits="userSpaceOnUse" x="-19" y="0" width="292" height="101">
<path d="M273 0H-19V101H273V0Z" fill="white"/>
</mask>
<g mask="url(#mask10_1_301)">
<path d="M0.0722656 44.5564L50.9177 74.1671C51.9095 73.2907 52.8471 72.3549 53.7225 71.3578L1.08367 40.7021C0.668943 41.9555 0.327985 43.2403 0.0722656 44.5564Z" fill="#018F62"/>
</g>
<mask id="mask11_1_301" style="mask-type:luminance" maskUnits="userSpaceOnUse" x="-19" y="0" width="292" height="101">
<path d="M273 0H-19V101H273V0Z" fill="white"/>
</mask>
<g mask="url(#mask11_1_301)">
<path d="M3.04443 65.1672L31.7341 81.8757C33.8422 81.793 35.8961 81.497 37.8763 81.0109L0.726562 59.375C1.31013 61.3972 2.08876 63.3368 3.04443 65.1672Z" fill="#018F62"/>
</g>
<mask id="mask12_1_301" style="mask-type:luminance" maskUnits="userSpaceOnUse" x="-19" y="0" width="292" height="101">
<path d="M273 0H-19V101H273V0Z" fill="white"/>
</mask>
<g mask="url(#mask12_1_301)">
<path d="M23.1328 81.0111C25.113 81.4989 27.1669 81.7932 29.275 81.8759L57.968 65.1657C58.9236 63.3353 59.7023 61.3974 60.2858 59.3735L23.1328 81.0111Z" fill="#66BF7F"/>
</g>
<mask id="mask13_1_301" style="mask-type:luminance" maskUnits="userSpaceOnUse" x="-19" y="0" width="292" height="101">
<path d="M273 0H-19V101H273V0Z" fill="white"/>
</mask>
<g mask="url(#mask13_1_301)">
<path d="M59.9269 40.7021L7.28809 71.3578C8.16343 72.3532 9.09943 73.2907 10.0928 74.1671L60.9383 44.5548C60.6825 43.2386 60.3416 41.9538 59.9269 40.7021Z" fill="#66BF7F"/>
</g>
<mask id="mask14_1_301" style="mask-type:luminance" maskUnits="userSpaceOnUse" x="-19" y="0" width="292" height="101">
<path d="M273 0H-19V101H273V0Z" fill="white"/>
</mask>
<g mask="url(#mask14_1_301)">
<path d="M50.921 27.0676L0.0722656 56.6799C0.327985 57.9961 0.670583 59.2809 1.08531 60.5326L53.7257 29.8769C52.8504 28.8815 51.9144 27.944 50.921 27.0676Z" fill="#66BF7F"/>
</g>
<mask id="mask15_1_301" style="mask-type:luminance" maskUnits="userSpaceOnUse" x="-19" y="0" width="292" height="101">
<path d="M273 0H-19V101H273V0Z" fill="white"/>
</mask>
<g mask="url(#mask15_1_301)">
<path d="M31.7427 19.3574L3.03986 36.0725C2.08583 37.9029 1.3072 39.8408 0.723633 41.863L37.8816 20.2222C35.903 19.7361 33.8507 19.4401 31.7427 19.3574Z" fill="#66BF7F"/>
</g>
</g>
<defs>
<clipPath id="clip0_1_301">
<rect width="273" height="101" fill="white"/>
</clipPath>
</defs>
</svg>
